<?xml version="1.0" encoding="utf-8"?>
<svg viewBox="0 0 500 500" xmlns="http://www.w3.org/2000/svg">
  <defs>
    <clipPath id="clippath631" transform="">
      <path d="M 0 765.999 L 1200 765.999 L 1200 0 L 0 0 Z" style="fill: none; clip-rule: nonzero;"/>
    </clipPath>
    <clipPath id="clip-1" transform="">
      <path d="M 0 765.999 L 1200 765.999 L 1200 0 L 0 0 Z" style="fill: none; clip-rule: nonzero;"/>
    </clipPath>
  </defs>
  <g style="clip-path: url(#clippath631);" transform="matrix(1, 0, 0, -1, 0.738033, 624.425171)">
    <g transform="translate(333.1177 519.9881)">
      <path d="M 0 0 L 0 -133.107 L -53.301 -169.604 L -172.26 -251.085 C -207.371 -247.158 -230.989 -239.593 -230.989 -230.989 L -230.989 0 Z" style="fill: rgb(63, 92, 108); fill-opacity: 1;"/>
    </g>
  </g>
  <g style="clip-path: url(#clippath631);" transform="matrix(1, 0, 0, -1, 0.738033, 624.425171)">
    <g transform="translate(333.1177 444.9163)">
      <path d="M 0 0 L 0 -58.036 L -53.301 -94.532 C -73.936 -97.043 -94.708 -98.259 -115.495 -98.17 C -179.305 -98.17 -230.989 -87.833 -230.989 -75.071 L -230.989 0 C -230.989 -12.762 -179.305 -23.099 -115.495 -23.099 C -51.684 -23.099 0 -12.762 0 0" style="fill: rgb(53, 73, 94); fill-opacity: 1;"/>
    </g>
  </g>
  <g style="clip-path: url(#clippath631);" transform="matrix(1, 0, 0, -1, 0.738033, 624.425171)">
    <g transform="translate(263.6533 443.5823)">
      <path d="M 0 0 C -3.189 -0.134 -5.883 2.343 -6.017 5.532 C -6.151 8.722 -3.674 11.416 -0.485 11.55 C 14.814 12.663 30.003 14.98 44.939 18.479 C 48.021 19.247 51.146 17.381 51.93 14.302 C 52.715 11.224 50.866 8.089 47.792 7.288 C 32.242 3.627 16.428 1.196 0.497 0.018 Z" style="fill: rgb(53, 73, 94); fill-opacity: 1;"/>
    </g>
  </g>
  <g style="clip-path: url(#clippath631);" transform="matrix(1, 0, 0, -1, 0.738033, 624.425171)">
    <g transform="translate(125.2275 294.7737)">
      <path d="M 0 0 C -3.189 0 -5.775 2.585 -5.775 5.774 L -5.775 17.324 C -5.775 20.513 -3.189 23.099 0 23.099 C 3.189 23.099 5.774 20.513 5.774 17.324 L 5.774 5.774 C 5.774 2.585 3.189 0 0 0" style="fill: rgb(53, 73, 94); fill-opacity: 1;"/>
    </g>
  </g>
  <g style="clip-path: url(#clippath631);" transform="matrix(1, 0, 0, -1, 0.738033, 624.425171)">
    <g transform="translate(327.0195 387.1693)">
      <path d="M 0 0 C 32.413 0 59.341 -25.986 64.099 -59.757 C 90.316 -64.429 110.378 -89.208 110.378 -118.988 C 110.378 -152.089 85.593 -179.045 55.12 -179.045 L -120.813 -179.045 C -146.355 -179.017 -167.144 -156.437 -167.144 -128.69 C -167.144 -100.942 -146.355 -78.363 -120.813 -78.363 L -119.872 -78.363 C -116.113 -51.164 -94.463 -30.236 -68.379 -30.236 C -63.685 -30.238 -59.016 -30.925 -54.52 -32.275 C -43.38 -12.586 -22.62 -0.296 0 0" style="fill: rgb(240, 196, 25); fill-opacity: 1;"/>
    </g>
  </g>
  <g style="clip-path: url(#clippath631);" transform="matrix(1, 0, 0, -1, 0.738033, 624.425171)">
    <g transform="translate(217.623 543.0867)">
      <path d="M 0 0 C 63.786 0 115.495 -10.342 115.495 -23.099 C 115.495 -35.856 63.786 -46.198 0 -46.198 C -63.786 -46.198 -115.495 -35.856 -115.495 -23.099 C -115.495 -10.342 -63.786 0 0 0" style="fill: rgb(84, 117, 128); fill-opacity: 1;"/>
    </g>
  </g>
  <g style="clip-path: url(#clip-1);" transform="matrix(1, 0, 0, -1, 1.248381, 624.199524)">
    <g transform="translate(125.2275 491.1141)">
      <path d="M 0 0 C 3.189 0 5.774 -2.585 5.774 -5.774 C 5.774 -8.964 3.189 -11.549 0 -11.549 C -3.189 -11.549 -5.775 -8.964 -5.775 -5.774 C -5.775 -2.585 -3.189 0 0 0" style="fill: rgb(255, 83, 100); fill-opacity: 1;"/>
    </g>
  </g>
  <g style="clip-path: url(#clip-1);" transform="matrix(1, 0, 0, -1, 1.248381, 624.199524)">
    <g transform="translate(125.2275 444.9163)">
      <path d="M 0 0 C -3.189 0 -5.775 2.585 -5.775 5.775 L -5.775 17.324 C -5.775 20.514 -3.189 23.099 0 23.099 C 3.189 23.099 5.774 20.514 5.774 17.324 L 5.774 5.775 C 5.774 2.585 3.189 0 0 0" style="fill: rgb(53, 73, 94); fill-opacity: 1;"/>
    </g>
  </g>
  <g style="clip-path: url(#clip-1);" transform="matrix(1, 0, 0, -1, 1.248381, 624.199524)">
    <g transform="translate(125.2275 416.0428)">
      <path d="M 0 0 C 3.189 0 5.774 -2.585 5.774 -5.775 C 5.774 -8.964 3.189 -11.549 0 -11.549 C -3.189 -11.549 -5.775 -8.964 -5.775 -5.775 C -5.775 -2.585 -3.189 0 0 0" style="fill: rgb(255, 83, 100); fill-opacity: 1;"/>
    </g>
  </g>
  <g style="clip-path: url(#clip-1);" transform="matrix(1, 0, 0, -1, 1.248381, 624.199524)">
    <g transform="translate(125.2275 369.845)">
      <path d="M 0 0 C -3.189 0 -5.775 2.585 -5.775 5.775 L -5.775 17.324 C -5.775 20.514 -3.189 23.099 0 23.099 C 3.189 23.099 5.774 20.514 5.774 17.324 L 5.774 5.775 C 5.774 2.585 3.189 0 0 0" style="fill: rgb(44, 62, 80); fill-opacity: 1;"/>
    </g>
  </g>
  <g style="clip-path: url(#clip-1);" transform="matrix(1, 0, 0, -1, 1.248381, 624.199524)">
    <g transform="translate(125.2275 340.9715)">
      <path d="M 0 0 C 3.189 0 5.774 -2.585 5.774 -5.775 C 5.774 -8.964 3.189 -11.549 0 -11.549 C -3.189 -11.549 -5.775 -8.964 -5.775 -5.775 C -5.775 -2.585 -3.189 0 0 0" style="fill: rgb(255, 83, 100); fill-opacity: 1;"/>
    </g>
  </g>
  <g style="clip-path: url(#clip-1);" transform="matrix(1, 0, 0, -1, 1.248381, 624.199524)">
    <g transform="translate(125.2275 294.7737)">
      <path d="M 0 0 C -3.189 0 -5.775 2.585 -5.775 5.774 L -5.775 17.324 C -5.775 20.513 -3.189 23.099 0 23.099 C 3.189 23.099 5.774 20.513 5.774 17.324 L 5.774 5.774 C 5.774 2.585 3.189 0 0 0" style="fill: rgb(53, 73, 94); fill-opacity: 1;"/>
    </g>
  </g>
</svg>