<?xml version="1.0" encoding="utf-8"?>
<svg viewBox="0 0 500 500" xmlns="http://www.w3.org/2000/svg">
  <defs>
    <clipPath id="clippath842" transform="">
      <path d="M 0 765.999 L 1200 765.999 L 1200 0 L 0 0 Z" style="fill: none; clip-rule: nonzero;"/>
    </clipPath>
  </defs>
  <g style="clip-path: url(#clippath842);" transform="matrix(1, 0, 0, -1, -29.8288, 625.514587)">
    <g transform="translate(161.8574 494.4627)">
      <path d="M 0 0 C 66.905 66.905 175.379 66.905 242.284 0 C 309.189 -66.905 309.189 -175.379 242.284 -242.284 C 175.379 -309.188 66.905 -309.188 0 -242.284 C -66.905 -175.379 -66.905 -66.905 0 0" style="fill: rgb(135, 192, 226); fill-opacity: 1;"/>
    </g>
  </g>
  <g style="clip-path: url(#clippath842);" transform="matrix(1, 0, 0, -1, -29.8288, 625.514587)">
    <g transform="translate(180.8062 235.3016)">
      <path d="M 0 0 C -3.607 -5.649 -1.948 -13.154 3.702 -16.757 C 33.133 -35.536 67.221 -45.463 102.283 -45.463 C 203.455 -45.463 285.767 36.847 285.767 138.021 C 285.767 239.195 203.457 321.505 102.283 321.505 C 1.108 321.505 -81.202 239.195 -81.202 138.021 C -81.202 93.501 -65.057 50.565 -35.743 17.125 C -31.324 12.086 -23.656 11.58 -18.617 15.999 C -13.576 20.416 -13.073 28.084 -17.491 33.124 C -42.923 62.138 -56.929 99.391 -56.929 138.021 C -56.929 225.81 14.492 297.233 102.283 297.233 C 190.073 297.233 261.495 225.812 261.495 138.021 C 261.495 50.232 190.073 -21.191 102.283 -21.191 C 71.855 -21.191 42.28 -12.583 16.759 3.704 C 11.105 7.311 3.605 5.65 0 0" style="fill: rgb(6, 90, 132); fill-opacity: 1;"/>
    </g>
  </g>
  <path d="M 354.608 237.056 L 345.315 153.499 L 327.391 166.245 C 306.944 148.586 280.478 138.894 253.26 138.894 C 190.991 138.894 139.962 189.922 139.962 252.192 L 139.962 258.83 L 179.794 258.83 L 179.794 252.192 C 179.794 211.962 213.03 178.725 253.26 178.725 C 267.467 178.725 281.717 182.841 293.401 190.542 L 280.656 199.702 Z" style="fill: rgb(227, 240, 248); fill-opacity: 1;"/>
  <g style="clip-path: url(#clippath842);" transform="matrix(1, 0, 0, -1, -29.8288, 625.514587)">
    <g transform="translate(396.3862 379.9608)">
      <path d="M 0 0 L 0 -6.638 C 0 -69.705 -51.692 -119.936 -113.297 -119.936 C -140.516 -119.936 -166.981 -110.243 -187.428 -92.585 L -205.353 -105.331 L -214.646 -21.774 L -140.693 -59.126 L -153.438 -68.288 C -141.755 -75.989 -127.504 -80.105 -113.297 -80.105 C -73.067 -80.105 -39.831 -46.867 -39.831 -6.638 L -39.831 0 Z" style="fill: rgb(227, 240, 248); fill-opacity: 1;"/>
    </g>
  </g>
  <g style="clip-path: url(#clippath842);" transform="matrix(1, 0, 0, -1, -29.8288, 625.514587)">
    <g transform="translate(323.23 434.9725)">
      <path d="M 0 0 C -11.684 7.701 -25.935 11.816 -40.141 11.816 L -40.141 51.648 C -12.923 51.648 13.542 41.956 33.989 24.297 L 51.914 37.043 L 61.207 -46.514 L -12.745 -9.161 Z" style="fill: rgb(56, 150, 207); fill-opacity: 1;"/>
    </g>
  </g>
  <g style="clip-path: url(#clippath842);" transform="matrix(1, 0, 0, -1, -29.8288, 625.514587)">
    <g transform="translate(396.3862 379.9608)">
      <path d="M 0 0 L 0 -6.638 C 0 -69.705 -51.692 -119.936 -113.297 -119.936 L -113.297 -80.105 C -73.067 -80.105 -39.831 -46.867 -39.831 -6.638 L -39.831 0 Z" style="fill: rgb(56, 150, 207); fill-opacity: 1;"/>
    </g>
  </g>
</svg>