<?xml version="1.0" encoding="utf-8"?>
<svg viewBox="0 0 500 500" xmlns="http://www.w3.org/2000/svg">
  <defs>
    <clipPath id="clippath1179" transform="" style="clip-path: url(#clippath1102);">
      <rect x="239.335" y="356.011" width="69.508" height="82.335" style="clip-rule: nonzero;"/>
    </clipPath>
    <clipPath id="clippath1102" transform="" style="clip-path: url(#clippath1101);">
      <rect x="-9.73511" y="-24.6817" width="1065.78511" height="780.5147" style="clip-rule: nonzero;"/>
    </clipPath>
    <clipPath id="clippath1101" transform="" style="clip-path: url(#clippath1100);">
      <path d="M 1056.049 35.199 L 26.733 35.199 L 26.733 735.199 L 1056.049 735.199 Z" style="fill: none; clip-rule: nonzero;"/>
    </clipPath>
    <clipPath id="clippath1100" transform="" style="clip-path: url(#clippath1097);">
      <rect x="-9.73511" y="-24.6817" width="1065.78511" height="780.5147" style="clip-rule: nonzero;"/>
    </clipPath>
    <clipPath id="clippath1097" transform="" style="clip-path: url(#clippath1094);">
      <rect x="-9.73511" y="-24.6817" width="1065.78511" height="780.5147" style="clip-rule: nonzero;"/>
    </clipPath>
    <clipPath id="clippath1094" transform="">
      <path d="M 26.733 35.199 L 1058.733 35.199 L 1058.733 735.199 L 26.733 735.199 Z" style="fill: none; clip-rule: nonzero;"/>
    </clipPath>
    <clipPath id="clippath1193" transform="" style="clip-path: url(#clippath1102);">
      <rect x="203.753" y="292.805" width="69.507" height="82.335" style="clip-rule: nonzero;"/>
    </clipPath>
    <clipPath id="clippath1194" transform="" style="clip-path: url(#clippath1102);">
      <rect x="274.915" y="292.805" width="69.508" height="82.335" style="clip-rule: nonzero;"/>
    </clipPath>
    <clipPath id="clippath1208" transform="" style="clip-path: url(#clippath1102);">
      <rect x="239.335" y="229.6" width="69.508" height="82.335" style="clip-rule: nonzero;"/>
    </clipPath>
    <clipPath id="clippath1223" transform="" style="clip-path: url(#clippath1102);">
      <rect x="274.915" y="166.392" width="69.508" height="82.335" style="clip-rule: nonzero;"/>
    </clipPath>
    <clipPath id="clippath1303" transform="">
      <path d="M 0 765.999 L 1200 765.999 L 1200 0 L 0 0 Z" style="fill: none; clip-rule: nonzero;"/>
    </clipPath>
  </defs>
  <g style="clip-path: url(#clippath1179);" transform="matrix(1, 0, 0, -1, -4.013731, 640.727478)">
    <g transform="translate(308.8433 376.5945)">
      <path d="M 0 0 L 0 41.167 L -34.754 61.751 L -69.508 41.167 L -69.508 0 L -34.754 -20.583 Z" style="fill: rgb(255, 255, 255); fill-opacity: 1;"/>
    </g>
  </g>
  <g style="clip-path: url(#clippath1193);" transform="matrix(1, 0, 0, -1, -4.013731, 640.727478)">
    <g transform="translate(273.2603 313.389)">
      <path d="M 0 0 L 0 41.167 L -34.754 61.751 L -69.508 41.167 L -69.508 0 L -34.754 -20.583 Z" style="fill: rgb(255, 255, 255); fill-opacity: 1;"/>
    </g>
  </g>
  <g style="clip-path: url(#clippath1194);" transform="matrix(1, 0, 0, -1, -4.013731, 640.727478)">
    <g transform="translate(344.4229 313.389)">
      <path d="M 0 0 L 0 41.167 L -34.754 61.751 L -69.508 41.167 L -69.508 0 L -34.754 -20.583 Z" style="fill: rgb(255, 255, 255); fill-opacity: 1;"/>
    </g>
  </g>
  <g style="clip-path: url(#clippath1208);" transform="matrix(1, 0, 0, -1, -4.013731, 640.727478)">
    <g transform="translate(308.8433 250.1834)">
      <path d="M 0 0 L 0 41.167 L -34.754 61.751 L -69.508 41.167 L -69.508 0 L -34.754 -20.583 Z" style="fill: rgb(255, 255, 255); fill-opacity: 1;"/>
    </g>
  </g>
  <g style="clip-path: url(#clippath1223);" transform="matrix(1, 0, 0, -1, -4.013731, 640.727478)">
    <g transform="translate(344.4229 186.9754)">
      <path d="M 0 0 L 0 41.167 L -34.754 61.751 L -69.508 41.167 L -69.508 0 L -34.754 -20.583 Z" style="fill: rgb(255, 255, 255); fill-opacity: 1;"/>
    </g>
  </g>
  <g style="clip-path: url(#clippath1303);" transform="matrix(1, 0, 0, -1, -4.013731, 640.727478)">
    <g transform="translate(235.3291 148.0242)">
      <path d="M 0 0 L 1.221 95.24 C 1.221 95.24 -30.974 109.996 -47.741 140.178 C -64.509 170.359 -104.751 205.907 -114.142 209.261 C -114.142 209.261 -129.791 219.098 -136.274 219.769 C -142.758 220.439 -155.949 218.427 -158.408 224.463 C -160.867 230.5 -155.278 247.938 -121.966 244.584 C -88.654 241.231 -78.146 227.146 -64.732 225.581 C -51.318 224.016 -44.028 232.289 -42.24 239.666 C -40.451 247.044 -43.382 283.709 -44.723 293.435 C -46.064 303.16 -58.473 343.402 -63.503 365.2 C -68.533 386.998 -76.582 426.57 -66.856 436.966 C -57.131 447.362 -47.071 435.625 -44.052 426.57 C -41.034 417.515 -30.638 380.291 -26.278 370.566 C -21.919 360.841 -12.864 318.921 -10.517 315.232 C -8.169 311.543 -4.816 304.836 1.891 309.196 C 8.598 313.556 -4.48 354.469 -3.81 375.932 C -3.139 397.394 -6.493 418.186 -8.505 437.637 C -10.517 457.087 -2.468 469.831 7.927 469.831 C 18.323 469.831 23.689 457.422 26.372 435.625 C 29.055 413.827 35.762 373.919 37.438 363.523 C 39.115 353.127 39.786 320.934 45.152 315.568 C 50.517 310.202 58.566 309.532 61.919 321.604 C 65.273 333.677 65.273 359.499 69.968 376.267 C 74.663 393.035 80.699 431.6 80.699 432.606 C 80.699 433.612 82.376 451.721 96.796 451.386 C 111.217 451.051 111.887 432.271 109.875 410.473 C 107.863 388.675 106.857 356.481 104.509 348.097 C 102.162 339.713 99.814 303.495 100.82 299.806 C 101.827 296.117 112.893 286.392 122.954 304.836 C 133.014 323.281 159.172 369.225 166.885 369.56 C 174.598 369.895 179.628 366.877 180.299 355.14 C 180.97 343.402 152.8 292.764 149.111 286.392 C 145.422 280.02 132.008 253.863 129.326 241.958 C 126.643 230.053 134.125 195.542 133.709 173.042 C 133.039 136.731 113.294 131.672 115.153 119.833 C 115.776 115.864 118.73 0 118.73 0 Z" style="fill: rgb(255, 211, 189); fill-opacity: 1;"/>
    </g>
  </g>
  <g style="clip-path: url(#clippath1303);" transform="matrix(1, 0, 0, -1, -4.013731, 640.727478)">
    <g transform="translate(99.9702 367.6375)">
      <path d="M 0 0 C 0 0 1.121 9.433 -5.251 11.948 C -11.623 14.463 -20.821 15.864 -23.348 9.798 C -25.875 3.732 -19.572 0.839 -14.504 0.587 C -9.436 0.335 0 0 0 0" style="fill: rgb(255, 241, 235); fill-opacity: 1;"/>
    </g>
  </g>
  <g style="clip-path: url(#clippath1303);" transform="matrix(1, 0, 0, -1, -4.013731, 640.727478)">
    <g transform="translate(166.7065 582.4193)">
      <path d="M 0 0 C 0 0 -0.222 -14.532 2.461 -18.109 C 5.144 -21.686 21.018 -19.898 22.359 -18.109 C 23.7 -16.321 22.336 -2.477 18.435 2.339 C 14.534 7.154 8.272 6.498 8.272 6.498 C 8.272 6.498 3.799 6.931 0 0" style="fill: rgb(255, 241, 235); fill-opacity: 1;"/>
    </g>
  </g>
  <g style="clip-path: url(#clippath1303);" transform="matrix(1, 0, 0, -1, -4.013731, 640.727478)">
    <g transform="translate(230.0083 608.3094)">
      <path d="M 0 0 C 0 0 2.415 -12.885 4.109 -16.317 C 7.125 -22.425 14.955 -20.137 19.979 -19.854 C 28.699 -19.362 26.854 -8.539 25.01 0 C 23.166 8.54 13.943 9.545 13.943 9.545 C 13.943 9.545 10.599 10.272 7.526 8.147 C 4.454 6.021 1.493 3.564 0 0" style="fill: rgb(255, 241, 235); fill-opacity: 1;"/>
    </g>
  </g>
  <g style="clip-path: url(#clippath1303);" transform="matrix(1, 0, 0, -1, -4.013731, 640.727478)">
    <g transform="translate(322.1973 595.5355)">
      <path d="M 0 0 C 0 0 -1.227 -13.586 -0.192 -16.33 C 1.653 -21.221 18.068 -21.212 19.342 -19.516 C 20.875 -17.476 21.437 -7.332 20.899 -3.565 C 20.68 -2.034 19.808 0.815 15.323 2.627 C 12.152 3.909 11.323 3.988 8.039 3.806 C 4.754 3.623 1.847 1.807 0.703 0.708 C -0.442 -0.391 0 0 0 0" style="fill: rgb(255, 241, 235); fill-opacity: 1;"/>
    </g>
  </g>
  <g style="clip-path: url(#clippath1303);" transform="matrix(1, 0, 0, -1, -4.013731, 640.727478)">
    <g transform="translate(402.2144 517.5838)">
      <path d="M 0 0 C 0 0 -4.671 -8.384 -5.677 -13.414 C -6.683 -18.444 0.359 -24.48 3.713 -24.48 C 7.066 -24.48 13.414 -14.42 13.414 -14.42 L 13.195 -10.253 C 12.911 -4.839 8.719 -0.369 3.315 0.076 C 2.282 0.161 1.175 0.147 0 0" style="fill: rgb(255, 241, 235); fill-opacity: 1;"/>
    </g>
  </g>
  <g style="clip-path: url(#clippath1303);" transform="matrix(1, 0, 0, -1, -4.013731, 640.727478)">
    <g transform="translate(215.4087 497.4969)">
      <path d="M 0 0 C 0 0 -4.322 -34.576 12.446 -45.978 C 29.213 -57.38 23.001 -24.539 23.001 -24.539 C 23.001 -24.539 25.659 -39.625 20.784 -40.863 C 7.918 -44.133 0 0 0 0" style="fill: rgb(255, 186, 156); fill-opacity: 1;"/>
    </g>
  </g>
  <g style="clip-path: url(#clippath1303);" transform="matrix(1, 0, 0, -1, -4.013731, 640.727478)">
    <g transform="translate(273.2173 508.0926)">
      <path d="M 0 0 C 0 0 -3.444 -26.056 1.754 -40.477 C 6.952 -54.896 13.492 -54.561 19.193 -52.214 C 24.894 -49.866 24.877 -34.787 24.877 -34.787 C 24.877 -34.787 22.695 -48.037 15.774 -48.113 C 8.853 -48.189 5.847 -42.91 5.127 -40.376 C 4.408 -37.843 0.229 -2.248 0.229 -2.248 Z" style="fill: rgb(255, 186, 156); fill-opacity: 1;"/>
    </g>
  </g>
  <g style="clip-path: url(#clippath1303);" transform="matrix(1, 0, 0, -1, -4.013731, 640.727478)">
    <g transform="translate(336.4097 465.2278)">
      <path d="M 0 0 C 0 0 -6.695 -14.491 0 -24.775 C 6.695 -35.06 20.272 -15.042 20.272 -15.042 C 20.272 -15.042 11.613 -27.905 5.13 -20.304 C -1.354 -12.703 0 0 0 0" style="fill: rgb(255, 186, 156); fill-opacity: 1;"/>
    </g>
  </g>
  <g style="clip-path: url(#clippath1303);" transform="matrix(1, 0, 0, -1, -4.013731, 640.727478)">
    <g transform="translate(78.9609 382.9393)">
      <path d="M 0 0 C 0 0 25.818 13.917 46.61 3.186 C 67.403 -7.545 92.278 -30.014 112.202 0 C 112.202 0 107.478 -13.917 84.673 -5.533 C 61.869 2.851 57.006 9.222 35.041 11.905 C 7.359 15.286 0 0 0 0" style="fill: rgb(255, 186, 156); fill-opacity: 1;"/>
    </g>
  </g>
  <g style="clip-path: url(#clippath1303);" transform="matrix(1, 0, 0, -1, -4.013731, 640.727478)">
    <g transform="translate(364.6548 389.9818)">
      <path d="M 0 0 C 0 0 -8.807 -18.389 -6.124 -36.721 C -3.441 -55.054 -3.888 -69.362 -15.514 -82.776 C -27.14 -96.19 -32.291 -123.446 -12.948 -155.65 L -14.172 -122.125 C -14.172 -122.125 -13.787 -116.196 -9.465 -109.904 C -5.144 -103.612 4.343 -89.293 4.192 -73.295 C 4.041 -57.297 0 0 0 0" style="fill: rgb(255, 186, 156); fill-opacity: 1;"/>
    </g>
  </g>
  <g style="clip-path: url(#clippath1303);" transform="matrix(1, 0, 0, -1, -4.013731, 640.727478)">
    <g transform="translate(203.5171 558.0941)">
      <path d="M 0 0 L -44.975 -12.03 L -54.05 25.815 C -55.619 31.68 -52.14 37.701 -46.274 39.27 L -24.979 44.966 C -19.114 46.535 -13.093 43.055 -11.524 37.19 Z" style="fill: rgb(198, 198, 197); fill-opacity: 1;"/>
    </g>
  </g>
  <g style="clip-path: url(#clippath1303);" transform="matrix(1, 0, 0, -1, -4.013731, 640.727478)">
    <g transform="translate(205.4546 551.7108)">
      <path d="M 0 0 L -45.404 -12.145 L -46.953 -5.658 L -1.979 6.372 Z" style="fill: rgb(156, 155, 155); fill-opacity: 1;"/>
    </g>
  </g>
  <g style="clip-path: url(#clippath1303);" transform="matrix(1, 0, 0, -1, -4.013731, 640.727478)">
    <g transform="translate(211.1113 533.0286)">
      <path d="M 0 0 C 1.185 -3.844 -1.057 -7.909 -4.939 -8.947 L -37.891 -17.761 C -41.747 -18.792 -45.682 -16.449 -46.613 -12.566 L -51.186 6.503 L -5.781 18.649 Z" style="fill: rgb(198, 198, 197); fill-opacity: 1;"/>
    </g>
  </g>
  <g style="clip-path: url(#clippath1303);" transform="matrix(1, 0, 0, -1, -4.013731, 640.727478)">
    <g transform="translate(176.4966 592.1375)">
      <path d="M 0 0 L 2.389 -5.273 L -10.976 -8.849 L -11.539 -3.086 Z" style="fill: rgb(156, 155, 155); fill-opacity: 1;"/>
    </g>
  </g>
  <g style="clip-path: url(#clippath1303);" transform="matrix(1, 0, 0, -1, -4.013731, 640.727478)">
    <g transform="translate(178.8857 586.8641)">
      <path d="M 0 0 L 4.384 -16.389 L -8.981 -19.964 L -13.365 -3.575 Z" style="fill: rgb(236, 236, 236); fill-opacity: 1;"/>
    </g>
  </g>
  <g style="clip-path: url(#clippath1303);" transform="matrix(1, 0, 0, -1, -4.013731, 640.727478)">
    <g transform="translate(289.2314 269.0843)">
      <path d="M 0 0 C -2.065 13.219 -0.512 26.822 0.99 39.979 C 2.992 57.506 4.882 74.062 -1.138 89.532 C -7.845 106.766 -23.616 119.263 -37.872 129.625 L -40.966 131.867 C -55.464 142.359 -70.456 153.208 -79.585 168.93 C -86.521 180.876 -89.349 194.356 -92.083 207.392 C -95.339 222.916 -99.62 238.218 -103.76 253.017 C -107.923 267.899 -112.228 283.288 -115.52 298.984 L -110.336 300.071 C -107.08 284.546 -102.799 269.243 -98.659 254.444 C -94.496 239.562 -90.191 224.173 -86.9 208.479 C -84.251 195.853 -81.514 182.798 -75.004 171.589 C -66.44 156.84 -51.912 146.326 -37.86 136.158 L -34.758 133.909 C -19.894 123.105 -3.43 110.023 3.797 91.453 C 10.292 74.763 8.239 56.774 6.252 39.377 C 4.791 26.571 3.278 13.329 5.233 0.817 Z" style="fill: rgb(2, 155, 197); fill-opacity: 1;"/>
    </g>
  </g>
  <g style="clip-path: url(#clippath1303);" transform="matrix(1, 0, 0, -1, -4.013731, 640.727478)">
    <g transform="translate(282.3506 271.074)">
      <path d="M 0 0 C -3.814 33.546 -24.186 65.147 -53.166 82.47 C -57.891 85.295 -62.958 87.837 -67.858 90.296 C -76.458 94.611 -85.35 99.072 -93.028 105.328 C -110.888 119.879 -121.886 144.446 -123.199 172.73 C -124.368 197.881 -118.976 220.522 -113.302 244.348 C -112.154 243.95 -108.582 244.282 -107.811 244.546 C -113.399 221.078 -119.043 197.381 -117.909 172.976 C -116.665 146.195 -106.377 123.035 -89.683 109.433 C -82.455 103.545 -74.211 99.409 -65.483 95.03 C -60.497 92.528 -55.341 89.941 -50.448 87.017 C -20.081 68.864 1.266 35.75 5.262 0.598 Z" style="fill: rgb(2, 155, 197); fill-opacity: 1;"/>
    </g>
  </g>
  <g style="clip-path: url(#clippath1303);" transform="matrix(1, 0, 0, -1, -4.013731, 640.727478)">
    <g transform="translate(300.7114 258.0867)">
      <path d="M 0 0 L -15.641 -4.654 L -23.394 12.845 C -24.745 16.007 -23.039 19.64 -19.743 20.621 L -10.383 23.406 C -7.087 24.386 -3.672 22.277 -3.074 18.891 Z" style="fill: rgb(158, 192, 201); fill-opacity: 1;"/>
    </g>
  </g>
  <g style="clip-path: url(#clippath1303);" transform="matrix(1, 0, 0, -1, -4.013731, 640.727478)">
    <g transform="translate(355.3989 151.366)">
      <path d="M 0 0 L -4.797 2.242 C 1.083 14.825 -4.184 29.653 -11.074 39.334 C -16.998 47.658 -24.988 54.613 -32.715 61.339 C -35.369 63.649 -38.113 66.038 -40.752 68.46 C -49.406 76.408 -61.266 88.802 -64.326 104.61 L -59.126 105.616 C -56.363 91.344 -45.272 79.802 -37.17 72.361 C -34.583 69.986 -31.866 67.621 -29.238 65.333 C -21.278 58.405 -13.047 51.241 -6.759 42.405 C 0.997 31.507 6.845 14.645 0 0" style="fill: rgb(2, 155, 197); fill-opacity: 1;"/>
    </g>
  </g>
</svg>